<?xml version="1.0" encoding="UTF-8"?>
<svg id="Layer_3" data-name="Layer 3" xmlns="http://www.w3.org/2000/svg" viewBox="0 0 732.26 219.06">
  <defs>
    <style>
      .cls-1 {
        fill: #176836;
      }

      .cls-2 {
        fill: #a32f34;
      }

      .cls-3 {
        fill: #72aa42;
      }
    </style>
  </defs>
  <path class="cls-1" d="M97.73,34.29h-61.27c-1.59,0-2.88,1.29-2.88,2.88v113.11c0,1.59,1.29,2.88,2.88,2.88h16.76c1.59,0,2.88-1.29,2.88-2.88v-43.99h32.73c1.59,0,2.88-1.29,2.88-2.88v-20.16c0-1.59-1.29-2.88-2.88-2.88h-32.73v-20.16h41.63c1.59,0,2.88-1.29,2.88-2.88v-20.16c0-1.59-1.29-2.88-2.88-2.88Z"/>
  <rect class="cls-1" x="542.79" y="82.33" width="118.78" height="22.17" rx=".45" ry=".45" transform="translate(508.77 695.59) rotate(-90)"/>
  <path class="cls-1" d="M260.72,70.26c-.4-.57-.93-.9-1.37-1.11-6.35-3.13-16.63-1.83-16.63-1.83-2.19.28-5.42.7-9.49,2.09-2.53.87-4.59,1.87-6.42,2.86v-1.59c0-2.02-1.64-3.67-3.67-3.67h-15.19c-2.02,0-3.67,1.64-3.67,3.67v78.81c0,2.02,1.64,3.67,3.67,3.67h15.19c2.02,0,3.67-1.64,3.67-3.67v-45.36c.71-2.29,2.09-5.59,5.05-8.67.2-.21.58-.6,1.07-1.03,5.23-4.62,12.6-4.48,14.31-4.47,4.94.03,8.62,1.87,10.34,2.88.4.15,1.07.31,1.76.07,1.23-.43,2.07-1.96,1.9-3.78.02-5.68.05-11.36.07-17.04-.02-.43-.12-1.16-.59-1.83Z"/>
  <path class="cls-1" d="M186.23,67.01h-15.19c-2.02,0-3.67,1.64-3.67,3.67v2.9c-6.72-4.45-14.72-7.09-23.35-7.09-23.6,0-42.73,19.36-42.73,43.25s19.13,43.25,42.73,43.25c8.63,0,16.63-2.64,23.35-7.09v3.85c0,2.02,1.64,3.67,3.67,3.67h15.19c2.02,0,3.67-1.64,3.67-3.67v-79.07c0-2.02-1.64-3.67-3.67-3.67ZM144.02,130.13c-11.12,0-20.14-9.13-20.14-20.39s9.02-20.39,20.14-20.39,20.14,9.13,20.14,20.39-9.02,20.39-20.14,20.39Z"/>
  <g>
    <rect class="cls-1" x="551.3" y="69.81" width="22.52" height="83" rx="3.67" ry="3.67"/>
    <path class="cls-2" d="M560.94,62.94c.85.74,2.09.74,2.96.03,2.32-1.9,5.28-4.62,8.25-8.26,4.35-5.33,7.28-8.91,6.55-13.22-.61-3.63-3.79-7.67-7.72-7.85-4.64-.22-8.04,5.03-8.11,5.28,0,0-.04.14-.14.26-.06.07-.14.17-.26.17-.13,0-.23-.11-.26-.15-.09-.11-.11-.24-.12-.25-.05-.26-3.21-5.39-7.67-5.31-4.44.07-7.35,4.53-7.92,7.91-.69,4.15,2.05,7.56,6.63,13.25,2.83,3.51,5.6,6.21,7.81,8.15Z"/>
  </g>
  <path class="cls-1" d="M629.58,71.81c-.01-.2-.07-1.71,1.13-2.79,1.05-.94,2.29-.89,2.53-.87h15.1c.25,0,1.5,0,2.53.96,1.14,1.07,1.14,2.48,1.13,2.71-.03,15.89-.06,31.78-.08,47.66,0,2,.62,3.92,1.79,5.55,1.73,2.4,4.63,5.41,9.03,6.92,1.05.36,2.89.97,5.37.93.59,0,3.39-.09,6.56-1.66,1.24-.78,2.19-1.52,2.81-2.05,3.66-3.07,5.28-6.2,5.76-7.45.36-.94.56-1.87.56-1.87s.18-.85.23-1.74c.11-1.95-.48-41.05,0-46.29.06-.67.24-1.87,1.13-2.71,1.03-.97,2.28-.97,2.53-.96h14.84c.22,0,1.64,0,2.7,1.13.97,1.03.97,2.28.96,2.53l-.09,91.42c0,1.46-.33,2.86-.98,4.17-2.02,4.09-5.98,10.49-13.25,15.77-10.32,7.5-20.97,8.12-24.83,8.17h-14.71c-.17.01-1.71.12-2.79-1.1-.92-1.04-.83-2.29-.81-2.51v-13.2c0-.23.01-1.64,1.16-2.71.99-.92,2.16-.96,2.44-.96,2.09.12,5.12.16,8.73-.26,8.03-.93,15.11-4.2,16.93-5.5,2.31-1.64,3.91-3.34,4.84-4.42.24-.32.56-.82.78-1.51.18-.57.23-1.08.23-1.44v-7.55c-1.81.88-4.23,1.89-7.16,2.71-3.47.96-6.58,1.35-9.08,1.48-3.27.09-14.81,0-25.31-8.38-7.21-5.75-10.56-12.72-12.04-16.66-.37-.98-.53-2.02-.53-3.07-.06-18.15-.11-36.3-.17-54.45Z"/>
  <path class="cls-3" d="M393.69,149.75c-.2,1.8-1.88,3.19-3.77,3.07-6.32-.41-14.21-1.7-22.66-5.06-19.64-7.81-30.83-22.3-36.27-31.23-1.39-2.29-4.76-2.34-6.14-.05-5.06,8.36-15.12,21.4-32.7,29.54-9.57,4.43-18.55,6.1-25.33,6.71-1.97.18-3.79-1.17-3.99-3.06-4.7-43.48,30.53-78.54,65.62-78.45,35,.08,70.01,35.15,65.25,78.53Z"/>
  <path class="cls-3" d="M536.71,149.75c-.2,1.8-1.88,3.19-3.77,3.07-6.32-.41-14.21-1.7-22.66-5.06-19.64-7.81-30.83-22.3-36.27-31.23-1.39-2.29-4.76-2.34-6.14-.05-5.06,8.36-15.12,21.4-32.7,29.54-9.57,4.43-18.55,6.1-25.33,6.71-1.97.18-3.79-1.17-3.99-3.06-4.7-43.48,30.53-78.54,65.62-78.45,35,.08,70.01,35.15,65.25,78.53Z"/>
</svg>